<svg xmlns="http://www.w3.org/2000/svg" xmlns:xlink="http://www.w3.org/1999/xlink" width="1920" zoomAndPan="magnify" viewBox="0 0 1440 809.999993" height="1080" preserveAspectRatio="xMidYMid meet" version="1.0"><defs><clipPath id="34cccaf52a"><path d="M 1217 130 L 1440 130 L 1440 374 L 1217 374 Z M 1217 130 " clip-rule="nonzero"/></clipPath><clipPath id="1572383107"><path d="M 1206.3125 150.445312 L 1949.804688 107.195312 L 1963.65625 345.292969 L 1220.164062 388.542969 Z M 1206.3125 150.445312 " clip-rule="nonzero"/></clipPath><clipPath id="9f5f558439"><path d="M 1206.3125 150.445312 L 1949.804688 107.195312 L 1963.65625 345.292969 L 1220.164062 388.542969 Z M 1206.3125 150.445312 " clip-rule="nonzero"/></clipPath><clipPath id="8861639539"><path d="M 0 524 L 264 524 L 264 695 L 0 695 Z M 0 524 " clip-rule="nonzero"/></clipPath><clipPath id="6bec48b87d"><path d="M -265.761719 538.476562 L 256.105469 508.121094 L 265.816406 675.085938 L -256.050781 705.445312 Z M -265.761719 538.476562 " clip-rule="nonzero"/></clipPath><clipPath id="c62a39b75b"><path d="M -265.761719 538.476562 L 256.105469 508.121094 L 265.816406 675.085938 L -256.050781 705.445312 Z M -265.761719 538.476562 " clip-rule="nonzero"/></clipPath><clipPath id="80b74d272f"><path d="M 96 559 L 112 559 L 112 576 L 96 576 Z M 96 559 " clip-rule="nonzero"/></clipPath><clipPath id="2eb2b27428"><path d="M -265.761719 538.476562 L 256.105469 508.121094 L 265.816406 675.085938 L -256.050781 705.445312 Z M -265.761719 538.476562 " clip-rule="nonzero"/></clipPath><clipPath id="238a59c576"><path d="M -265.761719 538.476562 L 256.105469 508.121094 L 265.816406 675.085938 L -256.050781 705.445312 Z M -265.761719 538.476562 " clip-rule="nonzero"/></clipPath><clipPath id="7332ef366e"><path d="M 113 548 L 125 548 L 125 560 L 113 560 Z M 113 548 " clip-rule="nonzero"/></clipPath><clipPath id="6d67a471f0"><path d="M -265.761719 538.476562 L 256.105469 508.121094 L 265.816406 675.085938 L -256.050781 705.445312 Z M -265.761719 538.476562 " clip-rule="nonzero"/></clipPath><clipPath id="167140bf0f"><path d="M -265.761719 538.476562 L 256.105469 508.121094 L 265.816406 675.085938 L -256.050781 705.445312 Z M -265.761719 538.476562 " clip-rule="nonzero"/></clipPath><clipPath id="00d775589b"><path d="M 1359 664 L 1371 664 L 1371 676 L 1359 676 Z M 1359 664 " clip-rule="nonzero"/></clipPath><clipPath id="1d9a3aa8e9"><path d="M 1253.566406 646.4375 L 1584.964844 654.648438 L 1582.253906 764.113281 L 1250.855469 755.90625 Z M 1253.566406 646.4375 " clip-rule="nonzero"/></clipPath><clipPath id="8d4776a768"><path d="M 1253.566406 646.4375 L 1584.964844 654.648438 L 1582.253906 764.113281 L 1250.855469 755.90625 Z M 1253.566406 646.4375 " clip-rule="nonzero"/></clipPath><clipPath id="8ae7eba78b"><path d="M 1377 667 L 1386 667 L 1386 677 L 1377 677 Z M 1377 667 " clip-rule="nonzero"/></clipPath><clipPath id="9f6559acab"><path d="M 1253.566406 646.4375 L 1584.964844 654.648438 L 1582.253906 764.113281 L 1250.855469 755.90625 Z M 1253.566406 646.4375 " clip-rule="nonzero"/></clipPath><clipPath id="1d15b7f63b"><path d="M 1253.566406 646.4375 L 1584.964844 654.648438 L 1582.253906 764.113281 L 1250.855469 755.90625 Z M 1253.566406 646.4375 " clip-rule="nonzero"/></clipPath><clipPath id="bde0b17292"><path d="M 1252 650 L 1440 650 L 1440 763 L 1252 763 Z M 1252 650 " clip-rule="nonzero"/></clipPath><clipPath id="45d8fada5b"><path d="M 1253.566406 646.4375 L 1584.964844 654.648438 L 1582.253906 764.113281 L 1250.855469 755.90625 Z M 1253.566406 646.4375 " clip-rule="nonzero"/></clipPath><clipPath id="25845577cd"><path d="M 1253.566406 646.4375 L 1584.964844 654.648438 L 1582.253906 764.113281 L 1250.855469 755.90625 Z M 1253.566406 646.4375 " clip-rule="nonzero"/></clipPath><clipPath id="f8f250c0c5"><path d="M 0 405 L 80 405 L 80 493.5 L 0 493.5 Z M 0 405 " clip-rule="nonzero"/></clipPath><clipPath id="b1344153e6"><path d="M 1360 40.574219 L 1440 40.574219 L 1440 129.074219 L 1360 129.074219 Z M 1360 40.574219 " clip-rule="nonzero"/></clipPath></defs><rect x="-144" width="1728" fill="#ffffff" y="-80.999999" height="971.999992" fill-opacity="1"/><rect x="-144" width="1728" fill="#ffffff" y="-80.999999" height="971.999992" fill-opacity="1"/><rect x="-144" width="1728" fill="#2d033b" y="-80.999999" height="971.999992" fill-opacity="1"/><g clip-path="url(#34cccaf52a)"><g clip-path="url(#1572383107)"><g clip-path="url(#9f5f558439)"><path fill="#ffffff" d="M 1356.257812 339.289062 C 1362.308594 355.796875 1378.601562 367.125 1397.042969 366.054688 C 1410.804688 365.253906 1422.570312 357.726562 1429.363281 346.855469 C 1443.019531 363.894531 1464.421875 374.296875 1487.871094 372.933594 C 1514.972656 371.359375 1537.539062 354.492188 1547.738281 331.207031 C 1561.527344 330.464844 1575.53125 329.683594 1589.730469 328.855469 C 1590.667969 328.800781 1591.597656 328.746094 1592.53125 328.691406 C 1601.925781 336.167969 1613.988281 340.347656 1626.914062 339.59375 C 1639.972656 338.835938 1651.589844 333.175781 1660.078125 324.507812 C 1675.152344 323.519531 1689.898438 322.515625 1704.261719 321.503906 C 1712.964844 336.492188 1729.574219 346.15625 1748.046875 345.082031 C 1767.125 343.972656 1782.902344 331.714844 1789.457031 315.007812 C 1827.390625 311.871094 1860.589844 308.757812 1887.390625 305.820312 C 1892.191406 314.628906 1901.742188 320.382812 1912.417969 319.761719 C 1924.410156 319.0625 1934.09375 310.5625 1936.835938 299.476562 C 1952.097656 297.03125 1960.421875 294.859375 1960.316406 293.105469 C 1960.21875 291.390625 1952.113281 290.214844 1937.359375 289.546875 C 1935.558594 275.753906 1923.40625 265.488281 1909.308594 266.304688 C 1906.765625 266.453125 1904.335938 266.976562 1902.042969 267.777344 C 1898.394531 264.183594 1893.316406 262.074219 1887.808594 262.394531 C 1887.144531 262.433594 1886.492188 262.507812 1885.851562 262.613281 C 1885.863281 261.753906 1885.878906 260.894531 1885.828125 260.023438 C 1885.121094 247.871094 1878.359375 237.515625 1868.644531 231.714844 C 1865.292969 198.992188 1836.746094 174.410156 1803.613281 176.335938 C 1775.972656 177.945312 1753.644531 197.496094 1747.261719 223.027344 C 1753.25 229.527344 1757.113281 238.0625 1757.667969 247.578125 C 1757.761719 249.191406 1757.746094 250.789062 1757.648438 252.363281 C 1754.152344 232.886719 1736.59375 218.652344 1716.359375 219.828125 C 1696.125 221.003906 1680.335938 237.179688 1679.121094 256.933594 C 1678.839844 255.378906 1678.640625 253.792969 1678.546875 252.179688 C 1677.792969 239.21875 1683.347656 227.351562 1692.546875 219.570312 C 1684.433594 214.308594 1674.640625 211.484375 1664.25 212.089844 C 1658.476562 212.425781 1653.007812 213.792969 1648.007812 215.996094 C 1643.476562 165.601562 1599.75 127.558594 1548.910156 130.515625 C 1499.890625 133.367188 1461.855469 173.308594 1460.394531 221.507812 C 1461.222656 222.773438 1462.015625 224.070312 1462.746094 225.402344 C 1451.542969 213.058594 1435.078125 205.699219 1417.152344 206.742188 C 1385.675781 208.574219 1361.644531 235.59375 1363.476562 267.09375 C 1363.984375 275.828125 1366.4375 283.984375 1370.371094 291.183594 C 1361.90625 281.855469 1356.445312 269.683594 1355.65625 256.121094 C 1355.617188 255.441406 1355.605469 254.761719 1355.589844 254.085938 C 1349.785156 251.550781 1343.3125 250.296875 1336.558594 250.691406 C 1313.597656 252.027344 1296.066406 271.734375 1297.402344 294.714844 C 1297.472656 295.90625 1297.601562 297.082031 1297.769531 298.242188 C 1293.328125 292.210938 1286.035156 288.464844 1278.003906 288.929688 C 1265.382812 289.664062 1255.75 300.5 1256.484375 313.128906 C 1256.792969 318.449219 1258.910156 323.226562 1262.179688 326.9375 C 1233.558594 330.617188 1217.355469 333.871094 1217.496094 336.316406 C 1217.679688 339.425781 1244.210938 340.765625 1289 340.503906 C 1293.15625 346.832031 1300.460938 350.84375 1308.558594 350.371094 C 1315.957031 349.941406 1322.269531 345.871094 1325.894531 340.007812 C 1335.503906 339.820312 1345.644531 339.578125 1356.257812 339.289062 Z M 1697.964844 294.566406 C 1697.960938 294.644531 1697.953125 294.726562 1697.949219 294.808594 C 1697.859375 294.8125 1697.765625 294.816406 1697.675781 294.820312 C 1697.773438 294.738281 1697.871094 294.648438 1697.964844 294.566406 Z M 1697.964844 294.566406 " fill-opacity="1" fill-rule="nonzero"/></g></g></g><g clip-path="url(#8861639539)"><g clip-path="url(#6bec48b87d)"><g clip-path="url(#c62a39b75b)"><path fill="#ffffff" d="M -160.511719 670.898438 C -156.269531 682.472656 -144.832031 690.417969 -131.886719 689.667969 C -122.230469 689.105469 -113.972656 683.824219 -109.203125 676.203125 C -99.617188 688.152344 -84.597656 695.445312 -68.140625 694.488281 C -49.117188 693.382812 -33.277344 681.554688 -26.117188 665.226562 C -16.441406 664.703125 -6.609375 664.15625 3.355469 663.574219 C 4.011719 663.535156 4.664062 663.496094 5.320312 663.460938 C 11.914062 668.699219 20.382812 671.632812 29.453125 671.105469 C 38.621094 670.570312 46.773438 666.601562 52.730469 660.523438 C 63.308594 659.832031 73.660156 659.125 83.742188 658.414062 C 89.851562 668.925781 101.507812 675.703125 114.472656 674.949219 C 127.863281 674.167969 138.9375 665.574219 143.539062 653.855469 C 170.164062 651.65625 193.464844 649.46875 212.277344 647.410156 C 215.644531 653.589844 222.351562 657.621094 229.84375 657.183594 C 238.261719 656.695312 245.058594 650.734375 246.980469 642.960938 C 257.691406 641.246094 263.535156 639.722656 263.464844 638.492188 C 263.394531 637.289062 257.703125 636.464844 247.351562 635.996094 C 246.085938 626.324219 237.554688 619.125 227.664062 619.699219 C 225.875 619.804688 224.171875 620.167969 222.5625 620.730469 C 220.003906 618.210938 216.4375 616.734375 212.570312 616.957031 C 212.105469 616.984375 211.648438 617.039062 211.195312 617.113281 C 211.207031 616.507812 211.21875 615.90625 211.183594 615.292969 C 210.6875 606.773438 205.9375 599.511719 199.121094 595.445312 C 196.769531 572.5 176.734375 555.257812 153.480469 556.609375 C 134.082031 557.738281 118.40625 571.453125 113.925781 589.355469 C 118.128906 593.914062 120.839844 599.898438 121.226562 606.570312 C 121.292969 607.703125 121.28125 608.824219 121.214844 609.929688 C 118.761719 596.269531 106.4375 586.289062 92.238281 587.113281 C 78.035156 587.941406 66.953125 599.285156 66.097656 613.136719 C 65.902344 612.046875 65.761719 610.933594 65.695312 609.800781 C 65.167969 600.710938 69.066406 592.390625 75.523438 586.933594 C 69.828125 583.242188 62.957031 581.261719 55.660156 581.6875 C 51.609375 581.921875 47.773438 582.882812 44.261719 584.429688 C 41.085938 549.089844 10.394531 522.414062 -25.289062 524.488281 C -59.695312 526.488281 -86.390625 554.5 -87.417969 588.300781 C -86.835938 589.1875 -86.28125 590.097656 -85.769531 591.03125 C -93.628906 582.375 -105.1875 577.214844 -117.769531 577.949219 C -139.863281 579.234375 -156.730469 598.183594 -155.445312 620.273438 C -155.089844 626.398438 -153.367188 632.117188 -150.605469 637.164062 C -156.546875 630.621094 -160.378906 622.085938 -160.933594 612.578125 C -160.960938 612.097656 -160.96875 611.625 -160.980469 611.148438 C -165.054688 609.371094 -169.597656 608.492188 -174.339844 608.769531 C -190.453125 609.707031 -202.757812 623.53125 -201.820312 639.644531 C -201.773438 640.480469 -201.679688 641.304688 -201.566406 642.117188 C -204.679688 637.886719 -209.796875 635.261719 -215.4375 635.589844 C -224.296875 636.105469 -231.058594 643.703125 -230.542969 652.558594 C -230.324219 656.289062 -228.839844 659.640625 -226.546875 662.242188 C -246.632812 664.824219 -258.007812 667.105469 -257.90625 668.820312 C -257.78125 671 -239.15625 671.941406 -207.71875 671.753906 C -204.804688 676.191406 -199.675781 679.003906 -193.992188 678.671875 C -188.800781 678.371094 -184.371094 675.515625 -181.824219 671.40625 C -175.082031 671.273438 -167.964844 671.101562 -160.511719 670.898438 Z M 79.324219 639.523438 C 79.320312 639.582031 79.316406 639.636719 79.3125 639.695312 C 79.25 639.699219 79.183594 639.703125 79.121094 639.703125 C 79.191406 639.644531 79.257812 639.582031 79.324219 639.523438 Z M 79.324219 639.523438 " fill-opacity="1" fill-rule="nonzero"/></g></g></g><g clip-path="url(#80b74d272f)"><g clip-path="url(#2eb2b27428)"><g clip-path="url(#238a59c576)"><path fill="#ffffff" d="M 109.359375 561.710938 C 109.738281 562.050781 110.082031 562.421875 110.390625 562.828125 C 110.695312 563.230469 110.960938 563.664062 111.179688 564.121094 C 111.402344 564.578125 111.578125 565.054688 111.703125 565.546875 C 111.832031 566.039062 111.910156 566.539062 111.941406 567.042969 C 111.96875 567.550781 111.949219 568.058594 111.878906 568.5625 C 111.808594 569.066406 111.691406 569.554688 111.523438 570.035156 C 111.359375 570.515625 111.144531 570.976562 110.886719 571.414062 C 110.632812 571.851562 110.332031 572.261719 109.996094 572.640625 C 109.65625 573.019531 109.285156 573.363281 108.878906 573.671875 C 108.472656 573.976562 108.042969 574.242188 107.585938 574.460938 C 107.128906 574.683594 106.652344 574.859375 106.160156 574.988281 C 105.667969 575.113281 105.167969 575.191406 104.660156 575.222656 C 104.152344 575.253906 103.648438 575.230469 103.144531 575.160156 C 102.640625 575.09375 102.148438 574.972656 101.667969 574.804688 C 101.191406 574.640625 100.730469 574.425781 100.292969 574.171875 C 99.851562 573.914062 99.445312 573.613281 99.066406 573.277344 C 98.683594 572.9375 98.34375 572.566406 98.035156 572.160156 C 97.730469 571.757812 97.464844 571.324219 97.242188 570.867188 C 97.023438 570.410156 96.847656 569.933594 96.71875 569.441406 C 96.589844 568.953125 96.511719 568.453125 96.484375 567.945312 C 96.453125 567.4375 96.472656 566.929688 96.542969 566.429688 C 96.613281 565.925781 96.730469 565.433594 96.898438 564.953125 C 97.066406 564.472656 97.277344 564.011719 97.535156 563.574219 C 97.792969 563.136719 98.089844 562.726562 98.429688 562.347656 C 98.765625 561.96875 99.136719 561.625 99.542969 561.320312 C 99.949219 561.011719 100.382812 560.75 100.839844 560.527344 C 101.296875 560.304688 101.769531 560.128906 102.261719 560.003906 C 102.753906 559.875 103.253906 559.796875 103.761719 559.765625 C 104.269531 559.738281 104.773438 559.757812 105.277344 559.828125 C 105.78125 559.898438 106.273438 560.015625 106.753906 560.183594 C 107.234375 560.347656 107.695312 560.5625 108.132812 560.820312 C 108.570312 561.074219 108.980469 561.375 109.359375 561.710938 Z M 109.359375 561.710938 " fill-opacity="1" fill-rule="nonzero"/></g></g></g><g clip-path="url(#7332ef366e)"><g clip-path="url(#6d67a471f0)"><g clip-path="url(#167140bf0f)"><path fill="#ffffff" d="M 124.984375 553.421875 C 125.007812 553.792969 124.992188 554.15625 124.941406 554.523438 C 124.890625 554.886719 124.804688 555.246094 124.683594 555.59375 C 124.5625 555.941406 124.40625 556.273438 124.222656 556.589844 C 124.035156 556.910156 123.820312 557.207031 123.574219 557.480469 C 123.328125 557.757812 123.058594 558.003906 122.765625 558.226562 C 122.472656 558.449219 122.15625 558.640625 121.824219 558.800781 C 121.496094 558.960938 121.148438 559.089844 120.792969 559.183594 C 120.4375 559.273438 120.074219 559.332031 119.707031 559.351562 C 119.339844 559.375 118.972656 559.359375 118.605469 559.308594 C 118.242188 559.257812 117.886719 559.171875 117.535156 559.050781 C 117.1875 558.929688 116.855469 558.777344 116.539062 558.589844 C 116.21875 558.402344 115.921875 558.1875 115.648438 557.941406 C 115.371094 557.695312 115.125 557.425781 114.902344 557.132812 C 114.679688 556.839844 114.488281 556.527344 114.328125 556.195312 C 114.167969 555.863281 114.039062 555.519531 113.949219 555.164062 C 113.855469 554.804688 113.796875 554.445312 113.777344 554.074219 C 113.753906 553.707031 113.769531 553.339844 113.820312 552.976562 C 113.871094 552.609375 113.957031 552.253906 114.078125 551.90625 C 114.199219 551.558594 114.351562 551.226562 114.539062 550.90625 C 114.726562 550.589844 114.941406 550.292969 115.1875 550.019531 C 115.433594 549.742188 115.703125 549.492188 115.996094 549.273438 C 116.289062 549.050781 116.601562 548.859375 116.933594 548.699219 C 117.265625 548.535156 117.609375 548.410156 117.96875 548.316406 C 118.324219 548.226562 118.6875 548.167969 119.054688 548.144531 C 119.421875 548.125 119.789062 548.140625 120.152344 548.191406 C 120.519531 548.242188 120.875 548.328125 121.222656 548.449219 C 121.570312 548.570312 121.90625 548.722656 122.222656 548.910156 C 122.539062 549.097656 122.835938 549.3125 123.113281 549.558594 C 123.386719 549.800781 123.636719 550.070312 123.859375 550.367188 C 124.082031 550.660156 124.273438 550.972656 124.433594 551.304688 C 124.59375 551.636719 124.71875 551.980469 124.8125 552.335938 C 124.90625 552.691406 124.964844 553.054688 124.984375 553.421875 Z M 124.984375 553.421875 " fill-opacity="1" fill-rule="nonzero"/></g></g></g><g clip-path="url(#00d775589b)"><g clip-path="url(#1d9a3aa8e9)"><g clip-path="url(#8d4776a768)"><path fill="#a982c8" d="M 1367.425781 665.429688 C 1367.75 665.574219 1368.058594 665.75 1368.351562 665.953125 C 1368.640625 666.15625 1368.910156 666.386719 1369.152344 666.644531 C 1369.398438 666.902344 1369.617188 667.179688 1369.804688 667.476562 C 1369.996094 667.777344 1370.15625 668.09375 1370.285156 668.425781 C 1370.410156 668.753906 1370.503906 669.09375 1370.566406 669.445312 C 1370.625 669.792969 1370.652344 670.144531 1370.644531 670.5 C 1370.636719 670.855469 1370.59375 671.203125 1370.515625 671.550781 C 1370.4375 671.894531 1370.324219 672.230469 1370.179688 672.554688 C 1370.035156 672.878906 1369.863281 673.1875 1369.65625 673.476562 C 1369.453125 673.765625 1369.222656 674.03125 1368.964844 674.277344 C 1368.707031 674.519531 1368.429688 674.738281 1368.128906 674.925781 C 1367.828125 675.117188 1367.511719 675.277344 1367.179688 675.402344 C 1366.847656 675.53125 1366.507812 675.625 1366.15625 675.683594 C 1365.804688 675.746094 1365.453125 675.773438 1365.097656 675.761719 C 1364.742188 675.753906 1364.390625 675.710938 1364.042969 675.632812 C 1363.699219 675.554688 1363.363281 675.445312 1363.035156 675.300781 C 1362.710938 675.15625 1362.402344 674.984375 1362.113281 674.777344 C 1361.824219 674.574219 1361.554688 674.34375 1361.308594 674.085938 C 1361.066406 673.832031 1360.847656 673.550781 1360.65625 673.253906 C 1360.46875 672.953125 1360.308594 672.636719 1360.179688 672.308594 C 1360.050781 671.976562 1359.957031 671.636719 1359.898438 671.285156 C 1359.835938 670.9375 1359.8125 670.585938 1359.820312 670.230469 C 1359.828125 669.878906 1359.871094 669.527344 1359.949219 669.179688 C 1360.027344 668.835938 1360.136719 668.5 1360.28125 668.175781 C 1360.425781 667.851562 1360.601562 667.546875 1360.804688 667.253906 C 1361.011719 666.964844 1361.242188 666.699219 1361.5 666.453125 C 1361.757812 666.210938 1362.035156 665.992188 1362.335938 665.804688 C 1362.636719 665.613281 1362.953125 665.457031 1363.285156 665.328125 C 1363.617188 665.199219 1363.957031 665.105469 1364.308594 665.046875 C 1364.65625 664.984375 1365.011719 664.960938 1365.367188 664.96875 C 1365.722656 664.976562 1366.070312 665.019531 1366.417969 665.097656 C 1366.765625 665.175781 1367.101562 665.285156 1367.425781 665.429688 Z M 1367.425781 665.429688 " fill-opacity="1" fill-rule="nonzero"/></g></g></g><g clip-path="url(#8ae7eba78b)"><g clip-path="url(#9f6559acab)"><g clip-path="url(#1d15b7f63b)"><path fill="#a982c8" d="M 1385.753906 671.921875 C 1385.746094 672.210938 1385.710938 672.492188 1385.648438 672.769531 C 1385.585938 673.050781 1385.496094 673.320312 1385.378906 673.582031 C 1385.261719 673.84375 1385.121094 674.089844 1384.957031 674.324219 C 1384.792969 674.558594 1384.605469 674.773438 1384.398438 674.96875 C 1384.191406 675.167969 1383.964844 675.339844 1383.722656 675.492188 C 1383.480469 675.648438 1383.226562 675.773438 1382.960938 675.878906 C 1382.691406 675.980469 1382.417969 676.054688 1382.132812 676.105469 C 1381.851562 676.152344 1381.566406 676.175781 1381.28125 676.167969 C 1380.996094 676.160156 1380.710938 676.125 1380.433594 676.0625 C 1380.152344 676 1379.882812 675.910156 1379.621094 675.792969 C 1379.355469 675.679688 1379.109375 675.539062 1378.875 675.375 C 1378.640625 675.210938 1378.425781 675.023438 1378.226562 674.816406 C 1378.027344 674.609375 1377.855469 674.386719 1377.699219 674.144531 C 1377.546875 673.902344 1377.417969 673.648438 1377.316406 673.382812 C 1377.210938 673.113281 1377.136719 672.839844 1377.085938 672.558594 C 1377.039062 672.277344 1377.019531 671.992188 1377.023438 671.707031 C 1377.03125 671.421875 1377.066406 671.140625 1377.128906 670.859375 C 1377.191406 670.582031 1377.28125 670.3125 1377.398438 670.050781 C 1377.515625 669.789062 1377.65625 669.542969 1377.820312 669.308594 C 1377.984375 669.074219 1378.171875 668.859375 1378.378906 668.660156 C 1378.585938 668.464844 1378.8125 668.289062 1379.054688 668.136719 C 1379.296875 667.984375 1379.550781 667.855469 1379.820312 667.753906 C 1380.085938 667.652344 1380.359375 667.574219 1380.644531 667.527344 C 1380.925781 667.476562 1381.210938 667.457031 1381.496094 667.464844 C 1381.78125 667.472656 1382.066406 667.507812 1382.347656 667.570312 C 1382.625 667.632812 1382.894531 667.71875 1383.160156 667.835938 C 1383.421875 667.953125 1383.667969 668.09375 1383.902344 668.257812 C 1384.136719 668.421875 1384.351562 668.609375 1384.550781 668.816406 C 1384.75 669.023438 1384.921875 669.246094 1385.078125 669.488281 C 1385.230469 669.730469 1385.359375 669.984375 1385.460938 670.25 C 1385.566406 670.515625 1385.640625 670.789062 1385.691406 671.074219 C 1385.738281 671.355469 1385.757812 671.636719 1385.753906 671.921875 Z M 1385.753906 671.921875 " fill-opacity="1" fill-rule="nonzero"/></g></g></g><g clip-path="url(#bde0b17292)"><g clip-path="url(#45d8fada5b)"><g clip-path="url(#25845577cd)"><path fill="#a982c8" d="M 1416.5625 760.039062 C 1507.3125 762.289062 1580.894531 763.515625 1580.984375 759.945312 C 1581.023438 758.269531 1564.855469 754.597656 1538.285156 750.945312 C 1540.519531 748.109375 1541.902344 744.570312 1542 740.6875 C 1542.238281 731.121094 1534.652344 723.175781 1525.058594 722.9375 C 1523.605469 722.902344 1522.195312 723.0625 1520.835938 723.367188 C 1516.035156 714.132812 1503.992188 707.117188 1489.3125 705.621094 C 1486.824219 712.59375 1481.8125 718.347656 1475.390625 721.824219 C 1481.691406 716.734375 1485.804688 709.027344 1486.019531 700.308594 C 1486.410156 684.523438 1473.894531 671.40625 1458.0625 671.011719 C 1448.296875 670.773438 1439.5625 675.429688 1434.199219 682.734375 C 1437.210938 676.476562 1442.335938 671.445312 1448.640625 668.542969 C 1443.917969 658.203125 1433.585938 650.898438 1421.429688 650.597656 C 1404.882812 650.1875 1391.070312 662.910156 1390.023438 679.238281 C 1382.609375 679.976562 1376.011719 682.417969 1371.121094 685.992188 C 1368.648438 683.839844 1365.433594 682.496094 1361.894531 682.410156 C 1361.488281 682.398438 1361.085938 682.417969 1360.6875 682.441406 C 1353.183594 682.867188 1347.140625 688.964844 1346.953125 696.589844 C 1346.761719 704.214844 1352.496094 710.605469 1359.96875 711.402344 C 1358.816406 711.65625 1357.621094 711.789062 1356.386719 711.757812 C 1351.207031 711.632812 1346.707031 708.894531 1344.117188 704.839844 C 1334.460938 706.960938 1326.71875 712.042969 1323.125 718.613281 C 1321.621094 718.144531 1320.03125 717.859375 1318.378906 717.816406 C 1308.785156 717.578125 1300.816406 725.144531 1300.578125 734.710938 C 1300.535156 736.390625 1300.75 738.019531 1301.160156 739.570312 C 1284.074219 739.847656 1272.347656 740.984375 1272.308594 742.636719 C 1272.28125 743.734375 1277.4375 744.863281 1285.925781 745.824219 C 1264.902344 747.960938 1252.386719 750.335938 1252.351562 751.804688 C 1252.261719 755.375 1325.816406 757.792969 1416.5625 760.039062 Z M 1416.5625 760.039062 " fill-opacity="1" fill-rule="nonzero"/></g></g></g><g clip-path="url(#f8f250c0c5)"><path fill="#a982c8" d="M -52.414062 493.523438 C 20.496094 493.523438 79.601562 493.042969 79.601562 490.15625 C 79.601562 488.800781 66.546875 486.160156 45.140625 483.738281 C 46.878906 481.40625 47.917969 478.515625 47.917969 475.378906 C 47.917969 467.644531 41.667969 461.375 33.960938 461.375 C 32.792969 461.375 31.664062 461.535156 30.582031 461.804688 C 26.542969 454.441406 16.734375 449.015625 4.917969 448.097656 C 3.058594 453.785156 -0.851562 458.53125 -5.9375 461.46875 C -0.980469 457.230469 2.167969 450.921875 2.167969 443.875 C 2.167969 431.109375 -8.144531 420.761719 -20.863281 420.761719 C -28.707031 420.761719 -35.628906 424.703125 -39.789062 430.710938 C -37.496094 425.59375 -33.480469 421.425781 -28.476562 418.957031 C -32.476562 410.695312 -40.914062 405 -50.683594 405 C -63.976562 405 -74.8125 415.554688 -75.328125 428.769531 C -81.269531 429.515625 -86.515625 431.621094 -90.371094 434.605469 C -92.402344 432.914062 -95.007812 431.894531 -97.851562 431.894531 C -98.179688 431.894531 -98.5 431.917969 -98.820312 431.945312 C -104.835938 432.4375 -109.566406 437.488281 -109.566406 443.652344 C -109.566406 449.816406 -104.835938 454.863281 -98.820312 455.359375 C -99.742188 455.585938 -100.699219 455.71875 -101.691406 455.71875 C -105.851562 455.71875 -109.519531 453.597656 -111.679688 450.375 C -119.390625 452.28125 -125.507812 456.542969 -128.257812 461.921875 C -129.476562 461.574219 -130.757812 461.375 -132.089844 461.375 C -139.796875 461.375 -146.042969 467.644531 -146.042969 475.378906 C -146.042969 476.738281 -145.839844 478.050781 -145.480469 479.292969 C -159.191406 479.863281 -168.585938 481.015625 -168.585938 482.347656 C -168.585938 483.238281 -164.421875 484.046875 -157.585938 484.65625 C -174.425781 486.800781 -184.425781 488.96875 -184.425781 490.15625 C -184.425781 493.042969 -125.320312 493.523438 -52.414062 493.523438 Z M -52.414062 493.523438 " fill-opacity="1" fill-rule="nonzero"/></g><path fill="#a982c8" d="M 68.417969 468.097656 C 68.417969 468.574219 68.375 469.046875 68.28125 469.515625 C 68.1875 469.980469 68.050781 470.4375 67.871094 470.875 C 67.6875 471.316406 67.464844 471.734375 67.199219 472.132812 C 66.9375 472.527344 66.636719 472.894531 66.300781 473.230469 C 65.964844 473.566406 65.601562 473.867188 65.207031 474.132812 C 64.8125 474.398438 64.394531 474.621094 63.953125 474.804688 C 63.515625 474.988281 63.0625 475.125 62.597656 475.21875 C 62.132812 475.308594 61.660156 475.355469 61.1875 475.355469 C 60.710938 475.355469 60.242188 475.308594 59.777344 475.21875 C 59.308594 475.125 58.859375 474.988281 58.417969 474.804688 C 57.980469 474.621094 57.5625 474.398438 57.167969 474.132812 C 56.773438 473.867188 56.410156 473.566406 56.074219 473.230469 C 55.738281 472.894531 55.4375 472.527344 55.171875 472.132812 C 54.910156 471.734375 54.6875 471.316406 54.503906 470.875 C 54.324219 470.4375 54.1875 469.980469 54.09375 469.515625 C 54 469.046875 53.953125 468.574219 53.953125 468.097656 C 53.953125 467.621094 54 467.148438 54.09375 466.683594 C 54.1875 466.214844 54.324219 465.761719 54.503906 465.320312 C 54.6875 464.882812 54.910156 464.460938 55.171875 464.066406 C 55.4375 463.671875 55.738281 463.304688 56.074219 462.964844 C 56.410156 462.628906 56.773438 462.328125 57.167969 462.0625 C 57.5625 461.800781 57.980469 461.574219 58.417969 461.394531 C 58.859375 461.210938 59.308594 461.074219 59.777344 460.980469 C 60.242188 460.886719 60.710938 460.839844 61.1875 460.839844 C 61.660156 460.839844 62.132812 460.886719 62.597656 460.980469 C 63.0625 461.074219 63.515625 461.210938 63.953125 461.394531 C 64.394531 461.574219 64.8125 461.800781 65.207031 462.0625 C 65.601562 462.328125 65.964844 462.628906 66.300781 462.964844 C 66.636719 463.304688 66.9375 463.671875 67.199219 464.066406 C 67.464844 464.460938 67.6875 464.882812 67.871094 465.320312 C 68.050781 465.761719 68.1875 466.214844 68.28125 466.683594 C 68.375 467.148438 68.417969 467.621094 68.417969 468.097656 Z M 68.417969 468.097656 " fill-opacity="1" fill-rule="nonzero"/><g clip-path="url(#b1344153e6)"><path fill="#a982c8" d="M 1492.132812 129.097656 C 1565.042969 129.097656 1624.148438 128.617188 1624.148438 125.730469 C 1624.148438 124.375 1611.09375 121.730469 1589.6875 119.3125 C 1591.425781 116.976562 1592.464844 114.089844 1592.464844 110.953125 C 1592.464844 103.21875 1586.214844 96.945312 1578.507812 96.945312 C 1577.339844 96.945312 1576.210938 97.105469 1575.128906 97.378906 C 1571.089844 90.015625 1561.277344 84.585938 1549.464844 83.671875 C 1547.605469 89.355469 1543.691406 94.105469 1538.609375 97.042969 C 1543.566406 92.800781 1546.714844 86.496094 1546.714844 79.445312 C 1546.714844 66.683594 1536.402344 56.335938 1523.683594 56.335938 C 1515.839844 56.335938 1508.917969 60.273438 1504.757812 66.28125 C 1507.050781 61.167969 1511.066406 57 1516.066406 54.527344 C 1512.070312 46.269531 1503.632812 40.574219 1493.863281 40.574219 C 1480.570312 40.574219 1469.734375 51.128906 1469.21875 64.34375 C 1463.277344 65.085938 1458.027344 67.191406 1454.175781 70.179688 C 1452.144531 68.488281 1449.539062 67.46875 1446.695312 67.46875 C 1446.367188 67.46875 1446.046875 67.492188 1445.726562 67.515625 C 1439.710938 68.011719 1434.980469 73.058594 1434.980469 79.222656 C 1434.980469 85.390625 1439.710938 90.4375 1445.726562 90.929688 C 1444.804688 91.160156 1443.847656 91.292969 1442.855469 91.292969 C 1438.695312 91.292969 1435.027344 89.171875 1432.867188 85.949219 C 1425.15625 87.855469 1419.039062 92.113281 1416.285156 97.496094 C 1415.070312 97.144531 1413.789062 96.949219 1412.457031 96.949219 C 1404.75 96.949219 1398.503906 103.21875 1398.503906 110.953125 C 1398.503906 112.3125 1398.707031 113.625 1399.066406 114.867188 C 1385.355469 115.433594 1375.960938 116.589844 1375.960938 117.921875 C 1375.960938 118.808594 1380.125 119.617188 1386.960938 120.226562 C 1370.121094 122.371094 1360.117188 124.542969 1360.117188 125.730469 C 1360.117188 128.617188 1419.226562 129.097656 1492.132812 129.097656 Z M 1492.132812 129.097656 " fill-opacity="1" fill-rule="nonzero"/></g></svg>